<!-- Generator: Adobe Illustrator 22.1.0, SVG Export Plug-In  -->
<svg version="1.1"
	 xmlns="http://www.w3.org/2000/svg" xmlns:xlink="http://www.w3.org/1999/xlink" xmlns:a="http://ns.adobe.com/AdobeSVGViewerExtensions/3.0/"
	 x="0px" y="0px" width="229.833px" height="146.977px" viewBox="0 0 229.833 146.977"
	 style="enable-background:new 0 0 229.833 146.977;" xml:space="preserve">
<style type="text/css">
	.st0{fill:#ABABAB;}
	.st1{fill:#FFFFFF;}
	.st2{fill:#F2E9E9;}
	.st3{fill:#00BD9E;}
	.st4{fill:#013047;}
	.st5{clip-path:url(#XMLID_3_);}
	.st6{fill:#EC7665;}
	.st7{fill:#FFB286;}
	.st8{fill:none;}
	.st9{fill:#009889;}
	.st10{fill:#00222D;}
	.st11{fill:#00A291;}
	.st12{fill:#BDBBBB;}
	.st13{font-family:'Roboto-Medium';}
	.st14{font-size:5.926px;}
	.st15{font-family:'Roboto-Black';}
	.st16{clip-path:url(#XMLID_4_);}
</style>
<defs>
</defs>
<g>
	<path class="st0" d="M228.792,4.981L228.792,4.981c-0.836-1.001-2.101-1.642-3.511-1.642H110.546H4.551
		C2.048,3.339,0,5.361,0,7.832v15.054V28.7l0,0v2.534v2.861v108.389c0,1.39,0.648,2.637,1.66,3.463
		c0.788,0.643,1.796,1.03,2.891,1.03h220.73c2.503,0,4.551-2.022,4.551-4.493V34.095v-2.861V28.7l0,0V7.832
		C229.833,6.752,229.442,5.758,228.792,4.981z"/>
	<g>
		<g>
			<g>
				<g>
					<path class="st1" d="M15.001,132.799L190.574,25.072H0v2.505v2.828v107.155c0,1.374,0.648,2.607,1.66,3.423l12.73-7.811
						L15.001,132.799L15.001,132.799z"/>
					<path class="st2" d="M190.574,25.072l-4.083,2.505l-4.609,2.828L15.001,132.799l-2.224,1.365L1.66,140.984
						c0.788,0.635,1.796,1.018,2.891,1.018h220.73c2.503,0,4.551-1.999,4.551-4.442V30.406v-2.828l0,0v-2.505H190.574z"/>
				</g>
				<path class="st3" d="M225.282,0H110.546H4.551C2.048,0,0,1.999,0,4.442v14.883v5.748h190.574l38.218-23.449
					C227.956,0.634,226.691,0,225.282,0z"/>
			</g>
			<g>
				<g>
					<path class="st4" d="M98.458,31.681v11.086h-1.432V31.681H98.458z"/>
					<path class="st4" d="M100.958,31.828c0.872-0.132,1.908-0.23,3.043-0.23c2.057,0,3.521,0.477,4.491,1.382
						c0.986,0.905,1.563,2.188,1.563,3.98c0,1.81-0.56,3.29-1.596,4.31c-1.036,1.037-2.747,1.596-4.902,1.596
						c-1.02,0-1.875-0.049-2.599-0.131V31.828z M102.39,41.632c0.361,0.065,0.888,0.082,1.447,0.082c3.06,0,4.721-1.71,4.721-4.705
						c0.017-2.615-1.464-4.276-4.49-4.276c-0.74,0-1.3,0.065-1.678,0.148V41.632z"/>
					<path class="st4" d="M123.148,42.405c-0.526,0.263-1.579,0.526-2.929,0.526c-3.125,0-5.478-1.974-5.478-5.609
						c0-3.471,2.353-5.823,5.79-5.823c1.382,0,2.254,0.296,2.632,0.494l-0.345,1.168c-0.543-0.264-1.316-0.461-2.237-0.461
						c-2.599,0-4.326,1.662-4.326,4.573c0,2.714,1.563,4.458,4.261,4.458c0.871,0,1.76-0.181,2.335-0.461L123.148,42.405z"/>
					<path class="st4" d="M126.8,39.28l-1.151,3.487h-1.48l3.767-11.086h1.728l3.783,11.086h-1.529l-1.185-3.487H126.8z
						 M130.436,38.161l-1.086-3.191c-0.247-0.724-0.411-1.382-0.576-2.023h-0.032c-0.165,0.658-0.346,1.332-0.56,2.006l-1.086,3.208
						H130.436z"/>
					<path class="st4" d="M135.074,31.828c0.724-0.148,1.76-0.23,2.747-0.23c1.53,0,2.517,0.28,3.208,0.905
						c0.559,0.494,0.871,1.25,0.871,2.105c0,1.464-0.921,2.435-2.089,2.829v0.049c0.855,0.296,1.365,1.086,1.629,2.237
						c0.361,1.546,0.625,2.615,0.855,3.043h-1.48c-0.182-0.313-0.428-1.267-0.74-2.648c-0.329-1.53-0.922-2.105-2.221-2.155h-1.349
						v4.803h-1.432V31.828z M136.506,36.878h1.464c1.529,0,2.5-0.839,2.5-2.105c0-1.431-1.036-2.056-2.55-2.073
						c-0.69,0-1.185,0.066-1.414,0.132V36.878z"/>
					<path class="st4" d="M143.924,31.828c0.872-0.132,1.908-0.23,3.043-0.23c2.057,0,3.521,0.477,4.491,1.382
						c0.986,0.905,1.563,2.188,1.563,3.98c0,1.81-0.56,3.29-1.596,4.31c-1.036,1.037-2.747,1.596-4.902,1.596
						c-1.02,0-1.875-0.049-2.599-0.131V31.828z M145.355,41.632c0.361,0.065,0.888,0.082,1.447,0.082c3.06,0,4.721-1.71,4.721-4.705
						c0.017-2.615-1.464-4.276-4.49-4.276c-0.74,0-1.3,0.065-1.678,0.148V41.632z"/>
				</g>
			</g>
			<g>
				<g>
					<path class="st4" d="M96.849,56.009v4.433h-0.572v-4.433H96.849z"/>
					<path class="st4" d="M97.849,56.068c0.349-0.052,0.763-0.092,1.217-0.092c0.821,0,1.407,0.19,1.795,0.552
						c0.395,0.362,0.625,0.875,0.625,1.592c0,0.723-0.224,1.315-0.638,1.723c-0.415,0.415-1.099,0.638-1.96,0.638
						c-0.408,0-0.75-0.02-1.039-0.053V56.068z M98.421,59.988c0.145,0.026,0.354,0.033,0.578,0.033c1.224,0,1.888-0.684,1.888-1.881
						c0.007-1.046-0.585-1.71-1.795-1.71c-0.296,0-0.52,0.026-0.671,0.059V59.988z"/>
					<path class="st4" d="M102.07,57.785c0-0.244,0.165-0.415,0.395-0.415c0.23,0,0.382,0.171,0.389,0.415
						c0,0.23-0.151,0.408-0.395,0.408C102.228,58.193,102.07,58.015,102.07,57.785z M102.07,60.106c0-0.243,0.165-0.414,0.395-0.414
						c0.23,0,0.382,0.171,0.389,0.414c0,0.23-0.151,0.408-0.395,0.408C102.228,60.514,102.07,60.337,102.07,60.106z"/>
					<path class="st4" d="M106.036,56.706h-0.013l-0.743,0.401l-0.112-0.44l0.935-0.5h0.493v4.275h-0.56V56.706z"/>
					<path class="st4" d="M108.155,60.442v-0.355l0.454-0.441c1.092-1.039,1.585-1.591,1.591-2.236c0-0.434-0.21-0.835-0.848-0.835
						c-0.389,0-0.711,0.197-0.908,0.362l-0.184-0.408c0.296-0.25,0.717-0.434,1.21-0.434c0.921,0,1.309,0.631,1.309,1.243
						c0,0.789-0.572,1.427-1.473,2.295l-0.343,0.316v0.013h1.921v0.48H108.155z"/>
					<path class="st4" d="M111.667,59.778c0.165,0.105,0.546,0.27,0.947,0.27c0.743,0,0.974-0.474,0.967-0.829
						c-0.007-0.599-0.546-0.855-1.104-0.855h-0.322V57.93h0.322c0.421,0,0.953-0.217,0.953-0.724c0-0.342-0.217-0.645-0.749-0.645
						c-0.343,0-0.671,0.151-0.855,0.283l-0.151-0.421c0.224-0.165,0.658-0.329,1.118-0.329c0.842,0,1.224,0.5,1.224,1.02
						c0,0.44-0.264,0.815-0.789,1.006v0.013c0.525,0.105,0.953,0.5,0.953,1.099c0,0.684-0.532,1.282-1.559,1.282
						c-0.48,0-0.901-0.151-1.111-0.289L111.667,59.778z"/>
					<path class="st4" d="M116.692,60.442v-1.164h-1.986v-0.381l1.907-2.729h0.625v2.657h0.599v0.454h-0.599v1.164H116.692z
						 M116.692,58.824v-1.427c0-0.224,0.007-0.447,0.02-0.671h-0.02c-0.132,0.25-0.237,0.434-0.355,0.631l-1.046,1.454v0.013
						H116.692z"/>
					<path class="st4" d="M120.829,56.654h-1.631l-0.164,1.098c0.099-0.013,0.19-0.026,0.348-0.026c0.329,0,0.658,0.073,0.921,0.23
						c0.336,0.19,0.612,0.559,0.612,1.098c0,0.835-0.665,1.46-1.592,1.46c-0.467,0-0.861-0.131-1.065-0.263l0.145-0.44
						c0.178,0.105,0.526,0.237,0.914,0.237c0.546,0,1.013-0.355,1.013-0.927c-0.007-0.553-0.375-0.947-1.229-0.947
						c-0.243,0-0.435,0.026-0.592,0.046l0.276-2.052h2.045V56.654z"/>
					<path class="st4" d="M124.091,56.575c-0.118-0.006-0.27,0-0.434,0.026c-0.907,0.151-1.388,0.815-1.486,1.52h0.02
						c0.204-0.27,0.56-0.494,1.033-0.494c0.756,0,1.289,0.546,1.289,1.381c0,0.783-0.533,1.506-1.421,1.506
						c-0.914,0-1.513-0.71-1.513-1.822c0-0.842,0.303-1.506,0.724-1.927c0.354-0.349,0.828-0.565,1.368-0.631
						c0.171-0.026,0.315-0.033,0.42-0.033V56.575z M123.927,59.041c0-0.611-0.349-0.98-0.881-0.98c-0.349,0-0.671,0.217-0.829,0.526
						c-0.039,0.066-0.065,0.151-0.065,0.256c0.013,0.704,0.335,1.223,0.94,1.223C123.592,60.067,123.927,59.653,123.927,59.041z"/>
					<path class="st4" d="M127.801,56.167v0.382l-1.861,3.893h-0.599l1.854-3.782v-0.013h-2.091v-0.48H127.801z"/>
					<path class="st4" d="M128.347,59.357c0-0.54,0.322-0.921,0.849-1.145l-0.007-0.02c-0.474-0.224-0.677-0.592-0.677-0.96
						c0-0.677,0.571-1.138,1.321-1.138c0.829,0,1.243,0.52,1.243,1.052c0,0.362-0.178,0.75-0.704,1v0.02
						c0.533,0.21,0.862,0.585,0.862,1.105c0,0.743-0.639,1.243-1.454,1.243C128.886,60.514,128.347,59.981,128.347,59.357z
						 M130.648,59.33c0-0.52-0.361-0.77-0.94-0.934c-0.5,0.145-0.77,0.474-0.77,0.881c-0.02,0.434,0.31,0.815,0.855,0.815
						C130.313,60.093,130.648,59.771,130.648,59.33z M129.057,57.193c0,0.428,0.322,0.658,0.816,0.79
						c0.368-0.125,0.65-0.388,0.65-0.776c0-0.342-0.204-0.697-0.724-0.697C129.32,56.509,129.057,56.825,129.057,57.193z"/>
					<path class="st4" d="M132.11,60.034c0.124,0.013,0.27,0,0.467-0.02c0.335-0.046,0.65-0.185,0.895-0.415
						c0.282-0.256,0.486-0.631,0.565-1.138h-0.021c-0.236,0.29-0.578,0.46-1.006,0.46c-0.77,0-1.263-0.579-1.263-1.309
						c0-0.809,0.585-1.519,1.46-1.519s1.414,0.71,1.414,1.802c0,0.94-0.315,1.598-0.736,2.006c-0.329,0.322-0.783,0.52-1.243,0.572
						c-0.211,0.033-0.395,0.04-0.532,0.033V60.034z M132.32,57.575c0,0.533,0.322,0.907,0.822,0.907c0.388,0,0.69-0.19,0.842-0.447
						c0.032-0.052,0.053-0.118,0.053-0.21c0-0.73-0.27-1.289-0.875-1.289C132.669,56.535,132.32,56.97,132.32,57.575z"/>
					<path class="st4" d="M136.404,56.706h-0.013l-0.743,0.401l-0.112-0.44l0.935-0.5h0.493v4.275h-0.56V56.706z"/>
					<path class="st4" d="M138.522,60.442v-0.355l0.454-0.441c1.092-1.039,1.585-1.591,1.591-2.236c0-0.434-0.21-0.835-0.848-0.835
						c-0.389,0-0.711,0.197-0.908,0.362l-0.184-0.408c0.296-0.25,0.717-0.434,1.21-0.434c0.921,0,1.309,0.631,1.309,1.243
						c0,0.789-0.572,1.427-1.473,2.295l-0.343,0.316v0.013h1.921v0.48H138.522z"/>
					<path class="st4" d="M142.034,59.778c0.165,0.105,0.546,0.27,0.947,0.27c0.743,0,0.974-0.474,0.967-0.829
						c-0.007-0.599-0.546-0.855-1.104-0.855h-0.322V57.93h0.322c0.421,0,0.953-0.217,0.953-0.724c0-0.342-0.217-0.645-0.749-0.645
						c-0.343,0-0.671,0.151-0.855,0.283l-0.151-0.421c0.224-0.165,0.658-0.329,1.118-0.329c0.842,0,1.224,0.5,1.224,1.02
						c0,0.44-0.264,0.815-0.789,1.006v0.013c0.525,0.105,0.953,0.5,0.953,1.099c0,0.684-0.532,1.282-1.559,1.282
						c-0.48,0-0.901-0.151-1.111-0.289L142.034,59.778z"/>
					<path class="st4" d="M147.06,60.442v-1.164h-1.986v-0.381l1.907-2.729h0.625v2.657h0.599v0.454h-0.599v1.164H147.06z
						 M147.06,58.824v-1.427c0-0.224,0.007-0.447,0.02-0.671h-0.02c-0.132,0.25-0.237,0.434-0.355,0.631l-1.046,1.454v0.013H147.06z
						"/>
					<path class="st4" d="M151.196,56.654h-1.631l-0.164,1.098c0.099-0.013,0.19-0.026,0.348-0.026c0.329,0,0.658,0.073,0.921,0.23
						c0.336,0.19,0.612,0.559,0.612,1.098c0,0.835-0.665,1.46-1.592,1.46c-0.467,0-0.861-0.131-1.065-0.263l0.145-0.44
						c0.178,0.105,0.526,0.237,0.914,0.237c0.546,0,1.013-0.355,1.013-0.927c-0.007-0.553-0.375-0.947-1.229-0.947
						c-0.243,0-0.435,0.026-0.592,0.046l0.276-2.052h2.045V56.654z"/>
					<path class="st4" d="M154.46,56.575c-0.119-0.006-0.271,0-0.435,0.026c-0.907,0.151-1.388,0.815-1.486,1.52h0.02
						c0.204-0.27,0.56-0.494,1.033-0.494c0.756,0,1.288,0.546,1.288,1.381c0,0.783-0.532,1.506-1.42,1.506
						c-0.914,0-1.513-0.71-1.513-1.822c0-0.842,0.303-1.506,0.724-1.927c0.354-0.349,0.828-0.565,1.367-0.631
						c0.172-0.026,0.316-0.033,0.422-0.033V56.575z M154.295,59.041c0-0.611-0.349-0.98-0.881-0.98
						c-0.349,0-0.671,0.217-0.829,0.526c-0.039,0.066-0.065,0.151-0.065,0.256c0.013,0.704,0.335,1.223,0.94,1.223
						C153.96,60.067,154.295,59.653,154.295,59.041z"/>
					<path class="st4" d="M158.169,56.167v0.382l-1.861,3.893h-0.599l1.854-3.782v-0.013h-2.091v-0.48H158.169z"/>
					<path class="st4" d="M158.715,59.357c0-0.54,0.322-0.921,0.849-1.145l-0.007-0.02c-0.474-0.224-0.677-0.592-0.677-0.96
						c0-0.677,0.571-1.138,1.321-1.138c0.829,0,1.243,0.52,1.243,1.052c0,0.362-0.178,0.75-0.704,1v0.02
						c0.533,0.21,0.862,0.585,0.862,1.105c0,0.743-0.639,1.243-1.454,1.243C159.254,60.514,158.715,59.981,158.715,59.357z
						 M161.017,59.33c0-0.52-0.361-0.77-0.94-0.934c-0.5,0.145-0.77,0.474-0.77,0.881c-0.02,0.434,0.31,0.815,0.855,0.815
						C160.682,60.093,161.017,59.771,161.017,59.33z M159.425,57.193c0,0.428,0.322,0.658,0.816,0.79
						c0.368-0.125,0.65-0.388,0.65-0.776c0-0.342-0.204-0.697-0.724-0.697C159.688,56.509,159.425,56.825,159.425,57.193z"/>
				</g>
			</g>
			<g>
				<g>
					<path class="st4" d="M96.993,89.595l-0.461,1.395H95.94l1.507-4.433h0.69l1.513,4.433h-0.612l-0.474-1.395H96.993z
						 M98.446,89.147l-0.434-1.275c-0.099-0.289-0.165-0.553-0.23-0.809H97.77c-0.066,0.263-0.139,0.532-0.224,0.802l-0.435,1.282
						H98.446z"/>
					<path class="st4" d="M102.952,86.32v3.847c0,0.283,0.006,0.605,0.026,0.822h-0.521l-0.025-0.553h-0.014
						c-0.178,0.355-0.565,0.625-1.085,0.625c-0.77,0-1.361-0.651-1.361-1.618c-0.007-1.059,0.651-1.71,1.427-1.71
						c0.487,0,0.815,0.23,0.96,0.487h0.014v-1.9H102.952z M102.373,89.101c0-0.072-0.007-0.171-0.026-0.243
						c-0.086-0.368-0.401-0.671-0.835-0.671c-0.599,0-0.954,0.526-0.954,1.229c0,0.645,0.316,1.178,0.94,1.178
						c0.389,0,0.743-0.257,0.849-0.69c0.02-0.079,0.026-0.158,0.026-0.25V89.101z"/>
					<path class="st4" d="M103.913,88.799c0-0.374-0.007-0.696-0.026-0.992h0.506l0.02,0.624h0.026
						c0.146-0.427,0.493-0.697,0.882-0.697c0.065,0,0.111,0.007,0.164,0.021V88.3c-0.059-0.014-0.118-0.021-0.197-0.021
						c-0.407,0-0.697,0.31-0.776,0.743c-0.013,0.079-0.025,0.172-0.025,0.271v1.696h-0.572V88.799z"/>
					<path class="st4" d="M106.32,89.503c0.013,0.782,0.513,1.104,1.091,1.104c0.415,0,0.665-0.072,0.882-0.164l0.099,0.414
						c-0.204,0.093-0.553,0.197-1.059,0.197c-0.98,0-1.565-0.645-1.565-1.604s0.565-1.717,1.493-1.717
						c1.039,0,1.314,0.915,1.314,1.5c0,0.118-0.013,0.21-0.02,0.27H106.32z M108.017,89.089c0.007-0.368-0.151-0.94-0.803-0.94
						c-0.585,0-0.842,0.539-0.888,0.94H108.017z"/>
					<path class="st4" d="M109.215,90.397c0.171,0.111,0.474,0.23,0.763,0.23c0.421,0,0.618-0.211,0.618-0.474
						c0-0.276-0.164-0.428-0.592-0.586c-0.572-0.203-0.842-0.52-0.842-0.9c0-0.514,0.414-0.935,1.099-0.935
						c0.322,0,0.604,0.093,0.782,0.198l-0.145,0.421c-0.125-0.079-0.355-0.185-0.651-0.185c-0.342,0-0.532,0.197-0.532,0.434
						c0,0.264,0.19,0.382,0.604,0.54c0.553,0.21,0.835,0.486,0.835,0.96c0,0.559-0.434,0.953-1.189,0.953
						c-0.349,0-0.671-0.085-0.895-0.217L109.215,90.397z"/>
					<path class="st4" d="M111.819,90.397c0.171,0.111,0.474,0.23,0.763,0.23c0.421,0,0.618-0.211,0.618-0.474
						c0-0.276-0.164-0.428-0.592-0.586c-0.572-0.203-0.842-0.52-0.842-0.9c0-0.514,0.414-0.935,1.099-0.935
						c0.322,0,0.604,0.093,0.782,0.198l-0.145,0.421c-0.125-0.079-0.355-0.185-0.651-0.185c-0.342,0-0.532,0.197-0.532,0.434
						c0,0.264,0.19,0.382,0.604,0.54c0.553,0.21,0.835,0.486,0.835,0.96c0,0.559-0.434,0.953-1.189,0.953
						c-0.349,0-0.671-0.085-0.895-0.217L111.819,90.397z"/>
					<path class="st4" d="M114.364,88.332c0-0.243,0.165-0.414,0.395-0.414c0.23,0,0.382,0.171,0.389,0.414
						c0,0.23-0.151,0.408-0.395,0.408C114.522,88.74,114.364,88.562,114.364,88.332z M114.364,90.654
						c0-0.244,0.165-0.415,0.395-0.415c0.23,0,0.382,0.171,0.389,0.415c0,0.229-0.151,0.407-0.395,0.407
						C114.522,91.061,114.364,90.884,114.364,90.654z"/>
					<path class="st4" d="M97.328,95.146h-0.013l-0.743,0.401l-0.112-0.441l0.935-0.499h0.493v4.274h-0.56V95.146z"/>
					<path class="st4" d="M99.446,98.882v-0.355l0.454-0.44c1.092-1.039,1.585-1.592,1.591-2.236c0-0.434-0.21-0.835-0.848-0.835
						c-0.389,0-0.711,0.197-0.908,0.362l-0.184-0.408c0.296-0.25,0.717-0.434,1.21-0.434c0.921,0,1.309,0.631,1.309,1.242
						c0,0.789-0.572,1.428-1.473,2.296l-0.343,0.315v0.013h1.921v0.48H99.446z"/>
					<path class="st4" d="M102.958,98.218c0.165,0.105,0.546,0.27,0.947,0.27c0.743,0,0.974-0.474,0.967-0.829
						c-0.007-0.598-0.546-0.854-1.104-0.854h-0.322v-0.435h0.322c0.421,0,0.953-0.217,0.953-0.723c0-0.342-0.217-0.645-0.749-0.645
						c-0.343,0-0.671,0.151-0.855,0.282l-0.151-0.421c0.224-0.164,0.658-0.328,1.118-0.328c0.842,0,1.224,0.499,1.224,1.019
						c0,0.441-0.264,0.815-0.789,1.007v0.013c0.525,0.105,0.953,0.5,0.953,1.099c0,0.684-0.532,1.282-1.559,1.282
						c-0.48,0-0.901-0.151-1.111-0.289L102.958,98.218z"/>
					<path class="st4" d="M108.51,97.487l-0.461,1.395h-0.592l1.507-4.433h0.69l1.513,4.433h-0.612l-0.474-1.395H108.51z
						 M109.963,97.04l-0.434-1.275c-0.099-0.289-0.165-0.553-0.23-0.809h-0.013c-0.066,0.263-0.139,0.532-0.224,0.802l-0.435,1.282
						H109.963z"/>
					<path class="st4" d="M111.818,98.882v-4.433h0.625l1.42,2.242c0.329,0.52,0.586,0.987,0.796,1.44l0.014-0.006
						c-0.053-0.593-0.066-1.132-0.066-1.822v-1.854h0.539v4.433h-0.578l-1.407-2.249c-0.31-0.493-0.605-1-0.829-1.479l-0.02,0.006
						c0.033,0.56,0.046,1.092,0.046,1.829v1.894H111.818z"/>
					<path class="st4" d="M117.087,98.882v-1.881l-1.4-2.552h0.65l0.625,1.224c0.171,0.335,0.303,0.604,0.44,0.914h0.014
						c0.125-0.29,0.276-0.579,0.447-0.914l0.638-1.224h0.651l-1.486,2.545v1.888H117.087z"/>
					<path class="st4" d="M120.573,98.882l-1.125-4.433h0.605l0.525,2.242c0.132,0.553,0.25,1.105,0.329,1.533h0.014
						c0.072-0.441,0.21-0.967,0.361-1.539l0.592-2.236h0.599l0.539,2.249c0.125,0.526,0.243,1.053,0.31,1.52h0.013
						c0.092-0.487,0.217-0.98,0.355-1.532l0.585-2.236h0.585l-1.256,4.433h-0.599l-0.559-2.309c-0.139-0.565-0.23-0.999-0.289-1.446
						h-0.014c-0.079,0.44-0.178,0.874-0.342,1.446l-0.632,2.309H120.573z"/>
					<path class="st4" d="M127.709,96.804h-1.723v1.598h1.92v0.48h-2.492v-4.433h2.394v0.48h-1.821v1.4h1.723V96.804z"/>
					<path class="st4" d="M128.65,94.509c0.289-0.06,0.703-0.093,1.098-0.093c0.612,0,1.007,0.112,1.283,0.362
						c0.224,0.197,0.349,0.5,0.349,0.842c0,0.585-0.369,0.973-0.836,1.131v0.02c0.342,0.118,0.546,0.435,0.651,0.895
						c0.145,0.618,0.25,1.046,0.342,1.217h-0.592c-0.072-0.125-0.171-0.507-0.296-1.059c-0.132-0.612-0.368-0.842-0.888-0.861
						h-0.539v1.92h-0.572V94.509z M129.223,96.527h0.585c0.611,0,1-0.335,1-0.842c0-0.572-0.415-0.822-1.02-0.828
						c-0.276,0-0.474,0.025-0.565,0.052V96.527z"/>
					<path class="st4" d="M134.484,96.804h-1.723v1.598h1.92v0.48h-2.492v-4.433h2.394v0.48h-1.821v1.4h1.723V96.804z"/>
					<path class="st4" d="M136.74,98.184c0.257,0.158,0.632,0.289,1.026,0.289c0.585,0,0.927-0.309,0.927-0.756
						c0-0.414-0.236-0.651-0.835-0.881c-0.724-0.257-1.171-0.632-1.171-1.257c0-0.69,0.572-1.203,1.434-1.203
						c0.454,0,0.783,0.105,0.98,0.217l-0.158,0.467c-0.145-0.078-0.44-0.21-0.842-0.21c-0.605,0-0.835,0.361-0.835,0.664
						c0,0.414,0.27,0.618,0.881,0.854c0.75,0.29,1.131,0.651,1.131,1.303c0,0.684-0.506,1.275-1.552,1.275
						c-0.428,0-0.895-0.125-1.131-0.282L136.74,98.184z"/>
					<path class="st4" d="M140.904,94.935h-1.349v-0.486h3.282v0.486h-1.355v3.946h-0.578V94.935z"/>
					<path class="st4" d="M143.331,94.509c0.289-0.06,0.703-0.093,1.098-0.093c0.612,0,1.007,0.112,1.283,0.362
						c0.224,0.197,0.349,0.5,0.349,0.842c0,0.585-0.369,0.973-0.836,1.131v0.02c0.343,0.118,0.546,0.435,0.651,0.895
						c0.145,0.618,0.25,1.046,0.342,1.217h-0.592c-0.072-0.125-0.171-0.507-0.296-1.059c-0.132-0.612-0.368-0.842-0.888-0.861
						h-0.539v1.92h-0.572V94.509z M143.903,96.527h0.585c0.611,0,1-0.335,1-0.842c0-0.572-0.415-0.822-1.02-0.828
						c-0.276,0-0.474,0.025-0.565,0.052V96.527z"/>
					<path class="st4" d="M149.165,96.804h-1.723v1.598h1.92v0.48h-2.492v-4.433h2.394v0.48h-1.821v1.4h1.723V96.804z"/>
					<path class="st4" d="M152.4,96.804h-1.723v1.598h1.92v0.48h-2.492v-4.433h2.394v0.48h-1.821v1.4h1.723V96.804z"/>
					<path class="st4" d="M154.289,94.935h-1.349v-0.486h3.282v0.486h-1.355v3.946h-0.578V94.935z"/>
					<path class="st4" d="M99.374,106.631c-0.211,0.105-0.632,0.21-1.171,0.21c-1.25,0-2.19-0.789-2.19-2.242
						c0-1.388,0.94-2.328,2.315-2.328c0.553,0,0.901,0.118,1.052,0.197l-0.138,0.467c-0.217-0.105-0.526-0.184-0.895-0.184
						c-1.039,0-1.729,0.664-1.729,1.828c0,1.085,0.625,1.782,1.703,1.782c0.349,0,0.704-0.072,0.934-0.185L99.374,106.631z"/>
					<path class="st4" d="M100.663,102.343v4.433h-0.572v-4.433H100.663z"/>
					<path class="st4" d="M102.505,102.829h-1.349v-0.486h3.282v0.486h-1.355v3.946h-0.578V102.829z"/>
					<path class="st4" d="M106.103,106.775v-1.881l-1.4-2.552h0.65l0.625,1.224c0.171,0.335,0.303,0.604,0.44,0.914h0.014
						c0.125-0.29,0.276-0.579,0.447-0.914l0.638-1.224h0.651l-1.486,2.545v1.888H106.103z"/>
					<path class="st4" d="M107.655,107.584c0.145-0.388,0.322-1.092,0.395-1.571l0.645-0.066c-0.151,0.56-0.44,1.289-0.625,1.599
						L107.655,107.584z"/>
					<path class="st4" d="M111.857,103.04h-0.013l-0.743,0.401L110.989,103l0.935-0.499h0.493v4.274h-0.56V103.04z"/>
					<path class="st4" d="M113.976,106.775v-0.355l0.454-0.44c1.092-1.039,1.585-1.592,1.591-2.236c0-0.434-0.21-0.835-0.848-0.835
						c-0.389,0-0.711,0.197-0.908,0.362l-0.184-0.408c0.296-0.25,0.717-0.434,1.21-0.434c0.921,0,1.309,0.631,1.309,1.242
						c0,0.79-0.572,1.428-1.473,2.296l-0.343,0.315v0.013h1.921v0.48H113.976z"/>
					<path class="st4" d="M117.487,106.111c0.165,0.105,0.546,0.27,0.947,0.27c0.743,0,0.974-0.474,0.967-0.829
						c-0.007-0.598-0.546-0.854-1.104-0.854h-0.322v-0.435h0.322c0.421,0,0.953-0.217,0.953-0.723c0-0.343-0.217-0.645-0.749-0.645
						c-0.343,0-0.671,0.151-0.855,0.282l-0.151-0.421c0.224-0.164,0.658-0.328,1.118-0.328c0.842,0,1.224,0.499,1.224,1.019
						c0,0.441-0.264,0.815-0.789,1.007v0.013c0.525,0.105,0.953,0.5,0.953,1.099c0,0.684-0.532,1.282-1.559,1.282
						c-0.48,0-0.901-0.151-1.111-0.289L117.487,106.111z"/>
					<path class="st4" d="M122.514,106.775v-1.164h-1.986v-0.382l1.907-2.729h0.625v2.656h0.599v0.454h-0.599v1.164H122.514z
						 M122.514,105.157v-1.427c0-0.224,0.007-0.447,0.02-0.671h-0.02c-0.132,0.25-0.237,0.435-0.355,0.632l-1.046,1.453v0.013
						H122.514z"/>
					<path class="st4" d="M126.65,102.987h-1.631l-0.165,1.099c0.1-0.014,0.191-0.026,0.349-0.026c0.329,0,0.658,0.072,0.921,0.229
						c0.336,0.191,0.612,0.56,0.612,1.099c0,0.835-0.665,1.46-1.592,1.46c-0.467,0-0.861-0.132-1.065-0.263l0.145-0.44
						c0.178,0.104,0.526,0.236,0.914,0.236c0.546,0,1.013-0.355,1.013-0.928c-0.007-0.552-0.375-0.946-1.229-0.946
						c-0.243,0-0.435,0.026-0.592,0.046l0.276-2.052h2.045V102.987z"/>
					<path class="st4" d="M128.998,104.782v0.428h-1.624v-0.428H128.998z"/>
					<path class="st4" d="M129.439,105.69c0-0.539,0.322-0.921,0.849-1.145l-0.007-0.02c-0.474-0.224-0.677-0.592-0.677-0.96
						c0-0.678,0.571-1.138,1.321-1.138c0.829,0,1.243,0.52,1.243,1.052c0,0.361-0.178,0.75-0.704,1v0.02
						c0.533,0.21,0.862,0.585,0.862,1.104c0,0.743-0.639,1.243-1.454,1.243C129.979,106.848,129.439,106.315,129.439,105.69z
						 M131.741,105.664c0-0.52-0.361-0.77-0.94-0.934c-0.5,0.145-0.77,0.473-0.77,0.881c-0.02,0.434,0.31,0.815,0.855,0.815
						C131.406,106.427,131.741,106.104,131.741,105.664z M130.149,103.526c0,0.428,0.322,0.658,0.816,0.789
						c0.368-0.125,0.65-0.388,0.65-0.775c0-0.343-0.204-0.697-0.724-0.697C130.413,102.843,130.149,103.158,130.149,103.526z"/>
					<path class="st4" d="M135.642,102.501v0.381l-1.861,3.894h-0.599l1.854-3.781v-0.014h-2.091v-0.479H135.642z"/>
					<path class="st4" d="M138.792,102.987h-1.631l-0.164,1.099c0.099-0.014,0.19-0.026,0.348-0.026
						c0.329,0,0.658,0.072,0.921,0.229c0.336,0.191,0.612,0.56,0.612,1.099c0,0.835-0.665,1.46-1.592,1.46
						c-0.467,0-0.861-0.132-1.065-0.263l0.145-0.44c0.178,0.104,0.526,0.236,0.914,0.236c0.546,0,1.013-0.355,1.013-0.928
						c-0.007-0.552-0.375-0.946-1.229-0.946c-0.243,0-0.435,0.026-0.592,0.046l0.276-2.052h2.045V102.987z"/>
					<path class="st4" d="M139.66,106.433c0-0.243,0.165-0.414,0.395-0.414c0.23,0,0.389,0.171,0.389,0.414
						c0,0.236-0.151,0.414-0.395,0.414C139.818,106.848,139.66,106.67,139.66,106.433z"/>
				</g>
			</g>
			<g>
				<g>
					<path class="st4" d="M96.276,113.659c0.276-0.046,0.638-0.086,1.098-0.086c0.566,0,0.98,0.132,1.243,0.368
						c0.243,0.211,0.389,0.533,0.389,0.928c0,0.401-0.119,0.717-0.343,0.947c-0.302,0.322-0.795,0.486-1.354,0.486
						c-0.171,0-0.329-0.007-0.46-0.039v1.775h-0.572V113.659z M96.849,115.797c0.125,0.032,0.282,0.046,0.474,0.046
						c0.69,0,1.111-0.336,1.111-0.947c0-0.585-0.415-0.868-1.046-0.868c-0.25,0-0.44,0.02-0.539,0.046V115.797z"/>
					<path class="st4" d="M99.724,113.37h0.578v1.985h0.014c0.092-0.164,0.236-0.309,0.414-0.407
						c0.171-0.099,0.375-0.165,0.592-0.165c0.428,0,1.111,0.264,1.111,1.361v1.895h-0.578v-1.828c0-0.513-0.191-0.947-0.737-0.947
						c-0.375,0-0.671,0.263-0.775,0.579c-0.033,0.079-0.04,0.164-0.04,0.276v1.92h-0.578V113.37z"/>
					<path class="st4" d="M106.254,116.421c0,1.178-0.815,1.69-1.585,1.69c-0.861,0-1.525-0.631-1.525-1.638
						c0-1.065,0.697-1.69,1.578-1.69C105.636,114.783,106.254,115.448,106.254,116.421z M103.728,116.454
						c0,0.697,0.401,1.224,0.967,1.224c0.553,0,0.967-0.52,0.967-1.236c0-0.54-0.27-1.224-0.953-1.224
						C104.024,115.218,103.728,115.848,103.728,116.454z"/>
					<path class="st4" d="M106.984,115.718c0-0.329-0.007-0.599-0.026-0.861h0.513l0.033,0.525h0.013
						c0.158-0.302,0.526-0.599,1.053-0.599c0.44,0,1.124,0.264,1.124,1.355v1.9h-0.578v-1.835c0-0.513-0.191-0.94-0.737-0.94
						c-0.381,0-0.677,0.27-0.775,0.592c-0.026,0.072-0.04,0.171-0.04,0.27v1.914h-0.578V115.718z"/>
					<path class="st4" d="M110.958,116.553c0.013,0.782,0.513,1.104,1.092,1.104c0.414,0,0.664-0.072,0.881-0.164l0.099,0.414
						c-0.204,0.093-0.553,0.197-1.059,0.197c-0.98,0-1.565-0.645-1.565-1.604s0.565-1.717,1.493-1.717
						c1.039,0,1.314,0.915,1.314,1.5c0,0.118-0.013,0.21-0.02,0.27H110.958z M112.654,116.139c0.007-0.368-0.151-0.94-0.803-0.94
						c-0.585,0-0.842,0.539-0.888,0.94H112.654z"/>
					<path class="st4" d="M113.792,115.382c0-0.243,0.165-0.414,0.395-0.414c0.23,0,0.382,0.171,0.389,0.414
						c0,0.23-0.151,0.408-0.395,0.408C113.95,115.79,113.792,115.612,113.792,115.382z M113.792,117.704
						c0-0.244,0.165-0.415,0.395-0.415c0.23,0,0.382,0.171,0.389,0.415c0,0.229-0.151,0.407-0.395,0.407
						C113.95,118.111,113.792,117.933,113.792,117.704z"/>
					<path class="st4" d="M97.946,122.432v1.546h1.486v0.395h-1.486v1.559h-0.421v-1.559h-1.486v-0.395h1.486v-1.546H97.946z"/>
					<path class="st4" d="M102.544,122.143h-1.631l-0.164,1.099c0.099-0.014,0.19-0.026,0.348-0.026
						c0.329,0,0.658,0.072,0.921,0.229c0.336,0.191,0.612,0.56,0.612,1.099c0,0.835-0.665,1.46-1.592,1.46
						c-0.467,0-0.861-0.132-1.065-0.263l0.145-0.44c0.178,0.104,0.526,0.236,0.914,0.236c0.546,0,1.013-0.355,1.013-0.928
						c-0.007-0.552-0.375-0.946-1.229-0.946c-0.243,0-0.435,0.026-0.592,0.046l0.276-2.052h2.045V122.143z"/>
					<path class="st4" d="M105.918,122.143h-1.631l-0.165,1.099c0.1-0.014,0.191-0.026,0.349-0.026c0.329,0,0.658,0.072,0.921,0.229
						c0.336,0.191,0.612,0.56,0.612,1.099c0,0.835-0.665,1.46-1.592,1.46c-0.467,0-0.861-0.132-1.065-0.263l0.145-0.44
						c0.178,0.104,0.526,0.236,0.914,0.236c0.546,0,1.013-0.355,1.013-0.928c-0.007-0.552-0.375-0.946-1.229-0.946
						c-0.243,0-0.435,0.026-0.592,0.046l0.276-2.052h2.045V122.143z"/>
					<path class="st4" d="M106.688,124.847c0-0.539,0.322-0.921,0.849-1.145l-0.007-0.02c-0.474-0.224-0.677-0.592-0.677-0.96
						c0-0.678,0.571-1.138,1.321-1.138c0.829,0,1.243,0.52,1.243,1.052c0,0.361-0.178,0.75-0.704,1v0.02
						c0.533,0.21,0.862,0.585,0.862,1.104c0,0.743-0.639,1.243-1.454,1.243C107.228,126.004,106.688,125.472,106.688,124.847z
						 M108.99,124.82c0-0.52-0.361-0.77-0.94-0.934c-0.5,0.145-0.77,0.473-0.77,0.881c-0.02,0.434,0.31,0.815,0.855,0.815
						C108.655,125.583,108.99,125.261,108.99,124.82z M107.398,122.682c0,0.428,0.322,0.658,0.816,0.789
						c0.368-0.125,0.65-0.388,0.65-0.775c0-0.343-0.204-0.697-0.724-0.697C107.662,121.999,107.398,122.314,107.398,122.682z"/>
					<path class="st4" d="M111.371,122.196h-0.013l-0.743,0.401l-0.112-0.441l0.935-0.499h0.493v4.274h-0.56V122.196z"/>
					<path class="st4" d="M115.278,125.931v-1.164h-1.986v-0.382l1.907-2.729h0.625v2.656h0.599v0.454h-0.599v1.164H115.278z
						 M115.278,124.313v-1.427c0-0.224,0.007-0.447,0.02-0.671h-0.02c-0.132,0.25-0.237,0.435-0.355,0.632l-1.046,1.453v0.013
						H115.278z"/>
					<path class="st4" d="M116.811,124.847c0-0.539,0.322-0.921,0.849-1.145l-0.007-0.02c-0.474-0.224-0.677-0.592-0.677-0.96
						c0-0.678,0.571-1.138,1.321-1.138c0.829,0,1.243,0.52,1.243,1.052c0,0.361-0.178,0.75-0.704,1v0.02
						c0.533,0.21,0.862,0.585,0.862,1.104c0,0.743-0.639,1.243-1.454,1.243C117.35,126.004,116.811,125.472,116.811,124.847z
						 M119.112,124.82c0-0.52-0.361-0.77-0.94-0.934c-0.5,0.145-0.77,0.473-0.77,0.881c-0.02,0.434,0.31,0.815,0.855,0.815
						C118.777,125.583,119.112,125.261,119.112,124.82z M117.52,122.682c0,0.428,0.322,0.658,0.816,0.789
						c0.368-0.125,0.65-0.388,0.65-0.775c0-0.343-0.204-0.697-0.724-0.697C117.784,121.999,117.52,122.314,117.52,122.682z"/>
					<path class="st4" d="M123.013,121.657v0.381l-1.861,3.894h-0.599l1.854-3.781v-0.014h-2.091v-0.479H123.013z"/>
					<path class="st4" d="M123.559,124.847c0-0.539,0.322-0.921,0.849-1.145l-0.007-0.02c-0.474-0.224-0.677-0.592-0.677-0.96
						c0-0.678,0.571-1.138,1.321-1.138c0.829,0,1.243,0.52,1.243,1.052c0,0.361-0.178,0.75-0.704,1v0.02
						c0.533,0.21,0.862,0.585,0.862,1.104c0,0.743-0.639,1.243-1.454,1.243C124.098,126.004,123.559,125.472,123.559,124.847z
						 M125.86,124.82c0-0.52-0.361-0.77-0.94-0.934c-0.5,0.145-0.77,0.473-0.77,0.881c-0.02,0.434,0.31,0.815,0.855,0.815
						C125.525,125.583,125.86,125.261,125.86,124.82z M124.269,122.682c0,0.428,0.322,0.658,0.816,0.789
						c0.368-0.125,0.65-0.388,0.65-0.775c0-0.343-0.204-0.697-0.724-0.697C124.532,121.999,124.269,122.314,124.269,122.682z"/>
					<path class="st4" d="M127.321,125.523c0.125,0.014,0.271,0,0.468-0.02c0.335-0.046,0.65-0.184,0.895-0.414
						c0.282-0.257,0.486-0.631,0.565-1.138h-0.021c-0.236,0.289-0.578,0.46-1.006,0.46c-0.77,0-1.263-0.578-1.263-1.309
						c0-0.809,0.585-1.519,1.46-1.519c0.875,0,1.414,0.71,1.414,1.802c0,0.94-0.315,1.598-0.736,2.006
						c-0.329,0.322-0.783,0.52-1.243,0.572c-0.211,0.032-0.395,0.039-0.533,0.032V125.523z M127.532,123.064
						c0,0.532,0.322,0.907,0.822,0.907c0.388,0,0.69-0.19,0.842-0.447c0.032-0.053,0.053-0.118,0.053-0.21
						c0-0.73-0.27-1.289-0.875-1.289C127.881,122.025,127.532,122.459,127.532,123.064z"/>
					<path class="st4" d="M130.308,124.847c0-0.539,0.322-0.921,0.849-1.145l-0.007-0.02c-0.474-0.224-0.677-0.592-0.677-0.96
						c0-0.678,0.571-1.138,1.321-1.138c0.829,0,1.243,0.52,1.243,1.052c0,0.361-0.178,0.75-0.704,1v0.02
						c0.533,0.21,0.862,0.585,0.862,1.104c0,0.743-0.639,1.243-1.454,1.243C130.847,126.004,130.308,125.472,130.308,124.847z
						 M132.609,124.82c0-0.52-0.361-0.77-0.94-0.934c-0.5,0.145-0.77,0.473-0.77,0.881c-0.02,0.434,0.31,0.815,0.855,0.815
						C132.274,125.583,132.609,125.261,132.609,124.82z M131.018,122.682c0,0.428,0.322,0.658,0.816,0.789
						c0.368-0.125,0.65-0.388,0.65-0.775c0-0.343-0.204-0.697-0.724-0.697C131.281,121.999,131.018,122.314,131.018,122.682z"/>
				</g>
			</g>
			<g>
				<g>
					<path class="st4" d="M96.276,72.225v-4.433h0.625l1.42,2.242c0.329,0.52,0.586,0.987,0.796,1.44l0.014-0.006
						c-0.053-0.593-0.066-1.132-0.066-1.822v-1.854h0.539v4.433h-0.578l-1.407-2.249c-0.31-0.493-0.605-1-0.829-1.48l-0.02,0.007
						c0.033,0.559,0.046,1.091,0.046,1.829v1.894H96.276z"/>
					<path class="st4" d="M102.347,72.225l-0.046-0.401h-0.02c-0.178,0.25-0.52,0.474-0.974,0.474c-0.645,0-0.973-0.454-0.973-0.914
						c0-0.77,0.684-1.19,1.913-1.184v-0.066c0-0.263-0.072-0.736-0.723-0.736c-0.296,0-0.605,0.093-0.829,0.237l-0.132-0.382
						c0.264-0.171,0.645-0.283,1.046-0.283c0.974,0,1.21,0.665,1.21,1.302v1.19c0,0.276,0.014,0.546,0.053,0.763H102.347z
						 M102.262,70.601c-0.632-0.014-1.349,0.099-1.349,0.717c0,0.375,0.25,0.552,0.546,0.552c0.415,0,0.678-0.263,0.77-0.532
						c0.02-0.06,0.033-0.125,0.033-0.185V70.601z"/>
					<path class="st4" d="M103.755,69.904c0-0.329-0.007-0.599-0.026-0.862h0.506l0.026,0.513h0.02c0.178-0.303,0.474-0.585,1-0.585
						c0.434,0,0.763,0.263,0.901,0.638h0.013c0.099-0.178,0.224-0.316,0.355-0.415c0.19-0.145,0.401-0.224,0.703-0.224
						c0.421,0,1.046,0.276,1.046,1.381v1.874h-0.565v-1.802c0-0.612-0.224-0.98-0.69-0.98c-0.329,0-0.586,0.244-0.685,0.526
						c-0.026,0.079-0.046,0.185-0.046,0.289v1.967h-0.565v-1.907c0-0.507-0.224-0.875-0.664-0.875c-0.361,0-0.625,0.29-0.717,0.579
						c-0.033,0.086-0.046,0.185-0.046,0.283v1.92h-0.565V69.904z"/>
					<path class="st4" d="M109.563,70.739c0.013,0.782,0.513,1.104,1.092,1.104c0.414,0,0.664-0.072,0.881-0.164l0.099,0.414
						c-0.204,0.093-0.553,0.197-1.059,0.197c-0.98,0-1.565-0.645-1.565-1.604s0.565-1.716,1.493-1.716
						c1.039,0,1.314,0.915,1.314,1.5c0,0.118-0.013,0.21-0.02,0.27H109.563z M111.26,70.325c0.007-0.368-0.151-0.94-0.803-0.94
						c-0.585,0-0.842,0.539-0.888,0.94H111.26z"/>
					<path class="st4" d="M112.397,69.568c0-0.243,0.165-0.414,0.395-0.414c0.23,0,0.382,0.171,0.389,0.414
						c0,0.23-0.151,0.408-0.395,0.408C112.556,69.976,112.397,69.799,112.397,69.568z M112.397,71.89
						c0-0.244,0.165-0.415,0.395-0.415c0.23,0,0.382,0.171,0.389,0.415c0,0.229-0.151,0.407-0.395,0.407
						C112.556,72.298,112.397,72.12,112.397,71.89z"/>
					<path class="st4" d="M96.276,80.118v-4.433h0.625l1.42,2.242c0.329,0.52,0.586,0.987,0.796,1.44l0.014-0.006
						c-0.053-0.593-0.066-1.132-0.066-1.822v-1.854h0.539v4.433h-0.578l-1.407-2.249c-0.31-0.493-0.605-1-0.829-1.479l-0.02,0.006
						c0.033,0.56,0.046,1.092,0.046,1.829v1.894H96.276z"/>
					<path class="st4" d="M101.321,78.723l-0.461,1.395h-0.592l1.507-4.433h0.69l1.513,4.433h-0.612l-0.474-1.395H101.321z
						 M102.774,78.276l-0.434-1.275c-0.099-0.289-0.165-0.553-0.23-0.809h-0.013c-0.066,0.263-0.139,0.532-0.224,0.802l-0.435,1.282
						H102.774z"/>
					<path class="st4" d="M108.339,78.172c-0.033-0.618-0.072-1.361-0.065-1.914h-0.021c-0.15,0.52-0.335,1.072-0.559,1.684
						l-0.782,2.15h-0.435l-0.717-2.111c-0.21-0.624-0.388-1.196-0.513-1.723h-0.014c-0.013,0.553-0.046,1.296-0.085,1.96l-0.118,1.9
						h-0.546l0.309-4.433h0.73l0.756,2.144c0.185,0.546,0.336,1.033,0.447,1.493h0.02c0.112-0.447,0.27-0.934,0.467-1.493
						l0.789-2.144h0.73l0.276,4.433h-0.56L108.339,78.172z"/>
					<path class="st4" d="M112.187,78.04h-1.723v1.598h1.92v0.48h-2.492v-4.433h2.394v0.48h-1.821v1.4h1.723V78.04z"/>
					<path class="st4" d="M114.443,79.421c0.257,0.158,0.632,0.289,1.026,0.289c0.585,0,0.927-0.309,0.927-0.756
						c0-0.414-0.236-0.651-0.835-0.881c-0.724-0.257-1.171-0.632-1.171-1.257c0-0.69,0.572-1.203,1.434-1.203
						c0.454,0,0.783,0.105,0.98,0.217l-0.158,0.467c-0.145-0.078-0.44-0.21-0.842-0.21c-0.605,0-0.835,0.361-0.835,0.664
						c0,0.414,0.27,0.618,0.881,0.854c0.75,0.29,1.131,0.651,1.131,1.303c0,0.684-0.506,1.275-1.552,1.275
						c-0.428,0-0.895-0.125-1.131-0.282L114.443,79.421z"/>
					<path class="st4" d="M118.337,75.685v2.624c0,0.993,0.44,1.414,1.032,1.414c0.657,0,1.078-0.435,1.078-1.414v-2.624h0.579
						v2.585c0,1.361-0.717,1.92-1.677,1.92c-0.908,0-1.592-0.52-1.592-1.894v-2.611H118.337z"/>
					<path class="st4" d="M122.02,75.745c0.289-0.06,0.703-0.093,1.098-0.093c0.612,0,1.007,0.112,1.283,0.362
						c0.224,0.197,0.349,0.5,0.349,0.842c0,0.585-0.369,0.973-0.836,1.131v0.02c0.343,0.118,0.546,0.435,0.651,0.895
						c0.145,0.618,0.25,1.046,0.342,1.217h-0.592c-0.072-0.125-0.171-0.507-0.296-1.059c-0.132-0.612-0.368-0.842-0.888-0.861
						h-0.539v1.92h-0.572V75.745z M122.593,77.764h0.585c0.611,0,1-0.335,1-0.842c0-0.572-0.415-0.822-1.02-0.828
						c-0.276,0-0.474,0.025-0.565,0.052V77.764z"/>
					<path class="st4" d="M125.56,80.118v-4.433h0.625l1.42,2.242c0.329,0.52,0.586,0.987,0.796,1.44l0.014-0.006
						c-0.053-0.593-0.066-1.132-0.066-1.822v-1.854h0.539v4.433h-0.578l-1.407-2.249c-0.31-0.493-0.605-1-0.829-1.479l-0.02,0.006
						c0.033,0.56,0.046,1.092,0.046,1.829v1.894H125.56z"/>
					<path class="st4" d="M130.604,78.723l-0.461,1.395h-0.592l1.507-4.433h0.69l1.513,4.433h-0.612l-0.474-1.395H130.604z
						 M132.057,78.276l-0.434-1.275c-0.099-0.289-0.165-0.553-0.23-0.809h-0.013c-0.066,0.263-0.139,0.532-0.224,0.802l-0.435,1.282
						H132.057z"/>
					<path class="st4" d="M137.621,78.172c-0.033-0.618-0.072-1.361-0.065-1.914h-0.021c-0.151,0.52-0.335,1.072-0.559,1.684
						l-0.782,2.15h-0.435l-0.717-2.111c-0.21-0.624-0.388-1.196-0.513-1.723h-0.014c-0.013,0.553-0.046,1.296-0.085,1.96l-0.118,1.9
						h-0.546l0.309-4.433h0.73l0.756,2.144c0.185,0.546,0.336,1.033,0.447,1.493h0.02c0.112-0.447,0.27-0.934,0.467-1.493
						l0.789-2.144h0.73l0.276,4.433h-0.56L137.621,78.172z"/>
					<path class="st4" d="M141.47,78.04h-1.723v1.598h1.92v0.48h-2.492v-4.433h2.394v0.48h-1.821v1.4h1.723V78.04z"/>
				</g>
			</g>
			<g>
				<g>
					<path class="st4" d="M165.013,116.168h-1.552v1.438h1.729v0.433h-2.243v-3.99h2.154v0.432h-1.64v1.262h1.552V116.168z"/>
					<path class="st4" d="M166.086,115.174l0.408,0.615c0.107,0.16,0.196,0.309,0.29,0.468h0.019
						c0.095-0.172,0.189-0.319,0.284-0.474l0.402-0.609h0.563l-0.977,1.385l1.006,1.48h-0.592l-0.42-0.646
						c-0.113-0.166-0.208-0.325-0.309-0.497h-0.012c-0.095,0.172-0.195,0.325-0.302,0.497l-0.414,0.646h-0.575l1.019-1.462
						l-0.971-1.403H166.086z"/>
					<path class="st4" d="M168.588,116.109c0-0.367-0.013-0.663-0.024-0.936h0.468l0.024,0.491h0.012
						c0.213-0.35,0.55-0.557,1.018-0.557c0.693,0,1.214,0.586,1.214,1.456c0,1.03-0.627,1.54-1.303,1.54
						c-0.379,0-0.71-0.166-0.882-0.45h-0.012v1.557h-0.515V116.109z M169.103,116.873c0,0.076,0.012,0.147,0.023,0.213
						c0.095,0.361,0.409,0.609,0.781,0.609c0.551,0,0.871-0.449,0.871-1.106c0-0.574-0.303-1.066-0.853-1.066
						c-0.355,0-0.688,0.255-0.788,0.646c-0.018,0.065-0.035,0.143-0.035,0.213V116.873z"/>
					<path class="st4" d="M172.25,116.701c0.012,0.704,0.462,0.994,0.982,0.994c0.373,0,0.598-0.064,0.793-0.147l0.089,0.373
						c-0.184,0.083-0.497,0.178-0.953,0.178c-0.882,0-1.409-0.581-1.409-1.445s0.51-1.545,1.345-1.545
						c0.935,0,1.184,0.823,1.184,1.35c0,0.106-0.012,0.189-0.018,0.243H172.25z M173.777,116.328
						c0.006-0.332-0.137-0.847-0.723-0.847c-0.526,0-0.758,0.485-0.799,0.847H173.777z"/>
					<path class="st4" d="M177.403,113.836v3.463c0,0.255,0.006,0.545,0.023,0.74h-0.468l-0.023-0.497h-0.012
						c-0.16,0.319-0.51,0.563-0.978,0.563c-0.692,0-1.226-0.587-1.226-1.457c-0.006-0.953,0.587-1.539,1.285-1.539
						c0.438,0,0.734,0.207,0.864,0.438h0.012v-1.711H177.403z M176.882,116.34c0-0.065-0.006-0.154-0.023-0.219
						c-0.077-0.332-0.361-0.604-0.752-0.604c-0.539,0-0.858,0.474-0.858,1.107c0,0.58,0.284,1.06,0.847,1.06
						c0.35,0,0.669-0.23,0.764-0.621c0.018-0.071,0.023-0.143,0.023-0.226V116.34z"/>
					<path class="st4" d="M178.851,114.368c0.006,0.178-0.125,0.32-0.332,0.32c-0.184,0-0.313-0.143-0.313-0.32
						c0-0.184,0.136-0.325,0.325-0.325C178.726,114.043,178.851,114.184,178.851,114.368z M178.27,118.039v-2.865h0.521v2.865
						H178.27z"/>
					<path class="st4" d="M180.284,114.35v0.823h0.746v0.396h-0.746v1.545c0,0.355,0.101,0.557,0.391,0.557
						c0.137,0,0.237-0.018,0.303-0.035l0.023,0.391c-0.101,0.041-0.261,0.071-0.462,0.071c-0.243,0-0.438-0.077-0.563-0.22
						c-0.148-0.153-0.201-0.408-0.201-0.746v-1.563h-0.444v-0.396h0.444v-0.688L180.284,114.35z"/>
					<path class="st4" d="M182.199,114.368c0.006,0.178-0.125,0.32-0.332,0.32c-0.184,0-0.313-0.143-0.313-0.32
						c0-0.184,0.136-0.325,0.325-0.325C182.074,114.043,182.199,114.184,182.199,114.368z M181.619,118.039v-2.865h0.521v2.865
						H181.619z"/>
					<path class="st4" d="M185.599,116.583c0,1.06-0.734,1.521-1.427,1.521c-0.775,0-1.374-0.568-1.374-1.475
						c0-0.959,0.628-1.521,1.421-1.521C185.042,115.108,185.599,115.706,185.599,116.583z M183.325,116.612
						c0,0.628,0.361,1.102,0.87,1.102c0.497,0,0.87-0.468,0.87-1.113c0-0.485-0.242-1.102-0.858-1.102
						C183.592,115.499,183.325,116.067,183.325,116.612z"/>
					<path class="st4" d="M186.259,115.949c0-0.296-0.006-0.539-0.024-0.775h0.462l0.029,0.474h0.013
						c0.142-0.272,0.474-0.539,0.947-0.539c0.396,0,1.012,0.237,1.012,1.22v1.711h-0.521v-1.651c0-0.462-0.172-0.847-0.663-0.847
						c-0.344,0-0.61,0.242-0.699,0.532c-0.023,0.065-0.035,0.154-0.035,0.243v1.723h-0.521V115.949z"/>
					<path class="st4" d="M192.077,114.101c0.313-0.047,0.687-0.082,1.095-0.082c0.74,0,1.268,0.171,1.616,0.497
						c0.355,0.325,0.563,0.787,0.563,1.433c0,0.651-0.201,1.184-0.574,1.551c-0.373,0.373-0.988,0.574-1.764,0.574
						c-0.367,0-0.676-0.018-0.936-0.047V114.101z M192.592,117.631c0.131,0.023,0.32,0.029,0.521,0.029
						c1.101,0,1.699-0.615,1.699-1.693c0.006-0.941-0.527-1.539-1.616-1.539c-0.267,0-0.468,0.023-0.604,0.053V117.631z"/>
					<path class="st4" d="M197.593,118.039l-0.041-0.361h-0.018c-0.16,0.226-0.468,0.427-0.877,0.427
						c-0.58,0-0.876-0.409-0.876-0.823c0-0.692,0.616-1.071,1.723-1.065v-0.06c0-0.236-0.064-0.663-0.651-0.663
						c-0.266,0-0.544,0.083-0.745,0.213l-0.119-0.343c0.237-0.154,0.581-0.255,0.941-0.255c0.877,0,1.09,0.598,1.09,1.172v1.072
						c0,0.248,0.012,0.491,0.047,0.687H197.593z M197.517,116.577c-0.568-0.013-1.214,0.089-1.214,0.645
						c0,0.338,0.225,0.498,0.491,0.498c0.373,0,0.609-0.237,0.692-0.479c0.018-0.054,0.03-0.113,0.03-0.166V116.577z"/>
					<path class="st4" d="M199.466,114.35v0.823h0.746v0.396h-0.746v1.545c0,0.355,0.101,0.557,0.391,0.557
						c0.137,0,0.237-0.018,0.303-0.035l0.023,0.391c-0.101,0.041-0.261,0.071-0.462,0.071c-0.243,0-0.438-0.077-0.563-0.22
						c-0.148-0.153-0.201-0.408-0.201-0.746v-1.563h-0.444v-0.396h0.444v-0.688L199.466,114.35z"/>
					<path class="st4" d="M201.055,116.701c0.012,0.704,0.462,0.994,0.982,0.994c0.373,0,0.598-0.064,0.793-0.147l0.089,0.373
						c-0.184,0.083-0.497,0.178-0.953,0.178c-0.882,0-1.409-0.581-1.409-1.445s0.51-1.545,1.345-1.545
						c0.935,0,1.184,0.823,1.184,1.35c0,0.106-0.012,0.189-0.018,0.243H201.055z M202.582,116.328
						c0.006-0.332-0.137-0.847-0.723-0.847c-0.526,0-0.758,0.485-0.799,0.847H202.582z"/>
					<path class="st4" d="M203.609,115.647c0-0.22,0.148-0.373,0.355-0.373s0.344,0.153,0.35,0.373c0,0.207-0.137,0.367-0.355,0.367
						C203.752,116.014,203.609,115.854,203.609,115.647z M203.609,117.737c0-0.22,0.148-0.373,0.355-0.373s0.344,0.153,0.35,0.373
						c0,0.207-0.137,0.367-0.355,0.367C203.752,118.104,203.609,117.944,203.609,117.737z"/>
					<path class="st4" d="M175.184,123.184c0,1.309-0.485,2.031-1.338,2.031c-0.752,0-1.262-0.705-1.273-1.978
						c0-1.291,0.557-2.001,1.338-2.001C174.722,121.237,175.184,121.959,175.184,123.184z M173.094,123.244
						c0,1,0.308,1.568,0.781,1.568c0.533,0,0.787-0.621,0.787-1.604c0-0.947-0.242-1.569-0.781-1.569
						C173.425,121.639,173.094,122.196,173.094,123.244z"/>
					<path class="st4" d="M178.224,123.184c0,1.309-0.485,2.031-1.338,2.031c-0.752,0-1.262-0.705-1.273-1.978
						c0-1.291,0.557-2.001,1.338-2.001C177.762,121.237,178.224,121.959,178.224,123.184z M176.134,123.244
						c0,1,0.308,1.568,0.781,1.568c0.533,0,0.787-0.621,0.787-1.604c0-0.947-0.242-1.569-0.781-1.569
						C176.465,121.639,176.134,122.196,176.134,123.244z"/>
					<path class="st4" d="M178.434,125.387l1.651-4.292h0.403l-1.658,4.292H178.434z"/>
					<path class="st4" d="M183.296,123.184c0,1.309-0.485,2.031-1.338,2.031c-0.752,0-1.262-0.705-1.273-1.978
						c0-1.291,0.557-2.001,1.338-2.001C182.834,121.237,183.296,121.959,183.296,123.184z M181.206,123.244
						c0,1,0.308,1.568,0.781,1.568c0.533,0,0.787-0.621,0.787-1.604c0-0.947-0.242-1.569-0.781-1.569
						C181.537,121.639,181.206,122.196,181.206,123.244z"/>
					<path class="st4" d="M186.336,123.184c0,1.309-0.485,2.031-1.338,2.031c-0.752,0-1.262-0.705-1.273-1.978
						c0-1.291,0.557-2.001,1.338-2.001C185.874,121.237,186.336,121.959,186.336,123.184z M184.246,123.244
						c0,1,0.308,1.568,0.781,1.568c0.533,0,0.787-0.621,0.787-1.604c0-0.947-0.242-1.569-0.781-1.569
						C184.577,121.639,184.246,122.196,184.246,123.244z"/>
					<path class="st4" d="M186.546,125.387l1.651-4.292h0.403l-1.658,4.292H186.546z"/>
					<path class="st4" d="M191.408,123.184c0,1.309-0.485,2.031-1.338,2.031c-0.752,0-1.262-0.705-1.273-1.978
						c0-1.291,0.557-2.001,1.338-2.001C190.946,121.237,191.408,121.959,191.408,123.184z M189.318,123.244
						c0,1,0.308,1.568,0.781,1.568c0.533,0,0.787-0.621,0.787-1.604c0-0.947-0.242-1.569-0.781-1.569
						C189.649,121.639,189.318,122.196,189.318,123.244z"/>
					<path class="st4" d="M194.448,123.184c0,1.309-0.485,2.031-1.338,2.031c-0.752,0-1.262-0.705-1.273-1.978
						c0-1.291,0.557-2.001,1.338-2.001C193.986,121.237,194.448,121.959,194.448,123.184z M192.358,123.244
						c0,1,0.308,1.568,0.781,1.568c0.533,0,0.787-0.621,0.787-1.604c0-0.947-0.242-1.569-0.781-1.569
						C192.689,121.639,192.358,122.196,192.358,123.244z"/>
				</g>
			</g>
			<g>
				<g>
					<g>
						<g>
							<rect x="22.048" y="110.055" class="st4" width="2.063" height="14.803"/>
						</g>
						<g>
							<rect x="24.935" y="110.055" class="st4" width="3.163" height="14.803"/>
						</g>
						<g>
							<rect x="28.799" y="110.055" class="st4" width="0.949" height="14.803"/>
						</g>
						<g>
							<rect x="30.855" y="110.055" class="st4" width="0.949" height="14.803"/>
						</g>
						<g>
							<rect x="32.842" y="110.055" class="st4" width="2.063" height="14.803"/>
						</g>
						<g>
							<rect x="35.729" y="110.055" class="st4" width="3.163" height="14.803"/>
						</g>
						<g>
							<rect x="39.593" y="110.055" class="st4" width="0.949" height="14.803"/>
						</g>
						<g>
							<rect x="41.649" y="110.055" class="st4" width="0.949" height="14.803"/>
						</g>
						<g>
							<rect x="51.467" y="110.055" class="st4" width="2.063" height="14.803"/>
						</g>
						<g>
							<rect x="47.48" y="110.055" class="st4" width="3.163" height="14.803"/>
						</g>
						<g>
							<rect x="45.829" y="110.055" class="st4" width="0.949" height="14.803"/>
						</g>
						<g>
							<rect x="43.774" y="110.055" class="st4" width="0.949" height="14.803"/>
						</g>
					</g>
					<g>
						<g>
							<rect x="54.602" y="110.055" class="st4" width="2.063" height="14.803"/>
						</g>
						<g>
							<rect x="57.489" y="110.055" class="st4" width="3.163" height="14.803"/>
						</g>
						<g>
							<rect x="61.353" y="110.055" class="st4" width="0.949" height="14.803"/>
						</g>
						<g>
							<rect x="63.409" y="110.055" class="st4" width="0.949" height="14.803"/>
						</g>
						<g>
							<rect x="65.396" y="110.055" class="st4" width="2.063" height="14.803"/>
						</g>
						<g>
							<rect x="68.284" y="110.055" class="st4" width="3.163" height="14.803"/>
						</g>
						<g>
							<rect x="72.147" y="110.055" class="st4" width="0.949" height="14.803"/>
						</g>
						<g>
							<rect x="74.203" y="110.055" class="st4" width="0.949" height="14.803"/>
						</g>
						<g>
							<rect x="78.384" y="110.055" class="st4" width="0.949" height="14.803"/>
						</g>
						<g>
							<rect x="76.328" y="110.055" class="st4" width="0.949" height="14.803"/>
						</g>
					</g>
				</g>
			</g>
			<g>
				<defs>
					<circle id="XMLID_2_" cx="50.032" cy="69.251" r="31.805"/>
				</defs>
				<use xlink:href="#XMLID_2_"  style="overflow:visible;fill:#F2E9E9;"/>
				<clipPath id="XMLID_3_">
					<use xlink:href="#XMLID_2_"  style="overflow:visible;"/>
				</clipPath>
				<g class="st5">
					<rect x="46.153" y="83.796" class="st6" width="7.742" height="7.742"/>
					<g>
						<path class="st7" d="M62.037,65.915c0,0,1.347-1.868,4.267-0.934c2.919,0.934,1.12,10.395-4.286,11.211L62.037,65.915z"/>
						<path class="st6" d="M63.248,68.399c0,0,0.69-1.724,2.138-1.655c1.448,0.069,0.965,4.276-2.138,6.62V68.399z"/>
					</g>
					<g>
						<path class="st7" d="M37.353,65.915c0,0-1.347-1.868-4.267-0.934c-2.919,0.934-1.12,10.395,4.286,11.211L37.353,65.915z"/>
						<path class="st6" d="M36.142,68.399c0,0-0.69-1.724-2.138-1.655c-1.448,0.069-0.965,4.276,2.138,6.62V68.399z"/>
					</g>
					<g>
						<path class="st8" d="M50.025,86.272c-0.268,0-0.534-0.008-0.798-0.023C49.518,86.287,49.787,86.296,50.025,86.272z"/>
						<path class="st7" d="M50.025,45.909L50.025,45.909c-4.419,0-8.385,2.039-11.004,5.222c0,0-2.266,14.718-0.342,23.654
							c1.53,7.106,7.42,11.053,10.548,11.463c0.264,0.015,0.53,0.023,0.798,0.023l0,0c7.837,0,14.25-6.413,14.25-14.25V60.159
							C64.275,52.321,57.862,45.909,50.025,45.909z"/>
						<path class="st6" d="M35.775,72.022c0,7.57,5.982,13.809,13.452,14.227c-3.128-0.41-9.018-4.357-10.548-11.463
							c-1.924-8.936,0.342-23.654,0.342-23.654c-2.026,2.462-3.246,5.609-3.246,9.028V72.022z"/>
					</g>
					<path class="st6" d="M41.47,54.711c0,0,10.094,6.799,19.066,1.521c0,0-18.719-6.523-18.813-4.275
						C41.627,54.204,41.47,54.711,41.47,54.711z"/>
					<g>
						<path class="st3" d="M33.986,99.367c0.994-1.009,1.649-1.599,1.649-1.599c0.156,0.433,0.242,0.973,0.269,1.599h0.848
							c1.941-1.887,3.341-2.886,3.376-2.911l-1.946-2.784l-1.942-2.792c-0.269,0.187-4.378,3.091-8.638,8.488H33.986z"/>
						<path class="st9" d="M35.328,99.367v-1.314c-0.285,0.268-0.755,0.718-1.342,1.314H35.328z"/>
					</g>
					<g>
						<path class="st3" d="M64.159,99.367c0.027-0.631,0.113-1.175,0.27-1.611c0,0,0.661,0.595,1.662,1.611h6.382
							c-4.264-5.404-8.38-8.312-8.649-8.5l-1.942,2.793l-1.946,2.784c0.035,0.025,1.441,1.028,3.389,2.923H64.159z"/>
						<path class="st9" d="M66.091,99.367c-0.592-0.601-1.067-1.057-1.354-1.326v1.326H66.091z"/>
					</g>
					<path class="st10" d="M64.013,53.776l-0.881,0.388c-1.296-2.065-4.761-1.607-4.761-1.607c-0.345,2.735,3.031,4.917,3.031,4.917
						l0.217,5.244l2.675,4.198c0.002-0.037,0.004-0.073,0.006-0.11l0.022,0.055C68.689,56.669,64.013,53.776,64.013,53.776z"/>
					<path class="st10" d="M36.203,53.776l0.881,0.388c1.296-2.065,4.761-1.607,4.761-1.607c0.345,2.735-3.031,4.917-3.031,4.917
						l-0.217,5.244l-2.675,4.198c-0.002-0.037-0.004-0.073-0.006-0.11l-0.022,0.055C31.526,56.669,36.203,53.776,36.203,53.776z"/>
					<g>
						<path class="st4" d="M38.834,48.651c-0.316,0.898,0.415,1.827,1.361,1.716c0.744-0.087,1.693-0.087,2.812,0.146
							c2.896,0.604,6.297,5.073,14.951,3.562c2.591-0.452,4.718-1.488,6.438-2.769c0.188-3.36-0.798-9.085-9.376-10.229l0,0
							c-3.089-0.033-6.621,0.15-9.811,0.836c-0.106,0.028-2.172,0.583-4.664,1.801c-0.007,0.132-0.025,0.271-0.057,0.415
							C40.248,45.216,39.389,47.074,38.834,48.651z"/>
						<path class="st10" d="M57.958,54.076c-8.654,1.511-12.055-2.958-14.951-3.562c-1.113-0.232-2.058-0.234-2.8-0.148
							c-0.951,0.11-1.691-0.811-1.373-1.714c0.555-1.577,1.414-3.435,1.655-4.521c0.032-0.145,0.05-0.283,0.057-0.415
							c-0.597,0.292-1.157,0.765-1.757,1.192c-0.461,0.328-0.899,0.69-1.281,1.108c-1.081,1.183-1.758,2.581-1.734,4.503
							c0.121,9.611,1.768,3.077,5.922,2.511c0,0,5.476,5.287,15.295,3.777c2.681-0.412,5.047-1.521,7.02-3.029
							c0,0,0.302-1.013,0.384-2.469C62.676,52.587,60.549,53.624,57.958,54.076z"/>
					</g>
					<g>
						<path class="st3" d="M62.47,90.468h-8.574c0,0-0.516,2.363-3.765,2.363c-3.249,0-3.999-2.363-3.999-2.363h-8.534
							c-1.455,0-2.27,1.017-2.27,2.27v9.305l29.413-0.058v-9.247C64.74,91.485,63.843,90.468,62.47,90.468z"/>
						<path class="st6" d="M50.13,92.831c3.249,0,3.765-2.363,3.765-2.363h-7.764C46.132,90.468,46.881,92.831,50.13,92.831z"/>
					</g>
				</g>
			</g>
			<g>
				<path class="st11" d="M228.792,1.623l-13.68,8.393h14.72V4.442C229.833,3.374,229.442,2.391,228.792,1.623z"/>
				<polygon class="st11" points="190.574,25.072 229.833,25.072 229.833,14.274 208.174,14.274 				"/>
				<polygon class="st1" points="0,10.017 0,14.274 208.174,14.274 215.113,10.017 				"/>
				<polygon class="st2" points="208.174,14.274 229.833,14.274 229.833,10.017 215.113,10.017 				"/>
			</g>
		</g>
		<g>
			<g>
				<circle class="st12" cx="194.716" cy="81.937" r="11.669"/>
			</g>
			<g>
				<path class="st12" d="M194.716,63.962c-9.928,0-17.976,8.048-17.976,17.976c0,9.928,8.048,17.976,17.976,17.976
					c9.928,0,17.976-8.048,17.976-17.976C212.692,72.01,204.644,63.962,194.716,63.962z M194.716,96.1
					c-7.81,0-14.163-6.353-14.163-14.163s6.353-14.163,14.163-14.163c7.81,0,14.163,6.353,14.163,14.163S202.526,96.1,194.716,96.1z
					"/>
			</g>
		</g>
		<g>
			<path class="st12" d="M194.1,103.625c-1.298-0.036-2.596-0.19-3.856-0.455l0.343-1.627c1.163,0.245,2.361,0.386,3.561,0.42
				L194.1,103.625z M198.827,103.244l-0.314-1.632c1.172-0.225,2.331-0.56,3.443-0.993l0.604,1.549
				C201.353,102.637,200.097,102.999,198.827,103.244z M185.736,101.686c-1.177-0.538-2.312-1.187-3.373-1.928l0.951-1.363
				c0.979,0.684,2.027,1.282,3.113,1.779L185.736,101.686z M206.762,99.969l-0.928-1.38c0.99-0.665,1.927-1.425,2.785-2.259
				l1.158,1.193C208.848,98.425,207.834,99.248,206.762,99.969z M178.793,96.634c-0.875-0.953-1.669-1.99-2.36-3.084l1.405-0.888
				c0.638,1.009,1.371,1.968,2.18,2.848L178.793,96.634z M212.798,93.864l-1.39-0.912c0.656-1,1.225-2.065,1.689-3.162l1.531,0.648
				C214.124,91.628,213.509,92.78,212.798,93.864z M174.355,89.285c-0.434-1.217-0.76-2.483-0.968-3.762l1.641-0.267
				c0.192,1.179,0.493,2.347,0.894,3.47L174.355,89.285z M215.983,85.889l-1.636-0.296c0.211-1.17,0.318-2.371,0.318-3.571h1.662
				C216.328,83.322,216.212,84.622,215.983,85.889z M174.799,80.882l-1.66-0.093c0.073-1.296,0.263-2.588,0.565-3.841l1.616,0.389
				C175.042,78.492,174.867,79.686,174.799,80.882z M214.556,79.92c-0.125-1.19-0.358-2.373-0.693-3.516l1.595-0.468
				c0.363,1.239,0.616,2.521,0.751,3.81L214.556,79.92z M176.81,73.218l-1.491-0.735c0.572-1.16,1.253-2.276,2.024-3.316l1.335,0.99
				C177.966,71.118,177.338,72.147,176.81,73.218z M212.176,72.364c-0.579-1.044-1.256-2.042-2.013-2.966l1.287-1.053
				c0.82,1.002,1.554,2.083,2.18,3.213L212.176,72.364z M181.655,66.943l-1.089-1.256c0.979-0.849,2.039-1.612,3.15-2.271
				l0.848,1.43C183.537,65.455,182.558,66.16,181.655,66.943z M207.035,66.33c-0.94-0.739-1.951-1.397-3.006-1.955l0.777-1.469
				c1.143,0.604,2.239,1.317,3.257,2.117L207.035,66.33z M188.552,63.044l-0.513-1.581c1.227-0.399,2.502-0.688,3.788-0.86
				l0.221,1.648C190.861,62.409,189.685,62.676,188.552,63.044z M199.956,62.768c-1.149-0.312-2.337-0.521-3.529-0.623l0.14-1.657
				c1.292,0.11,2.579,0.337,3.825,0.675L199.956,62.768z"/>
		</g>
	</g>
</g>
</svg>